<mxfile host="Electron" modified="2024-04-02T04:25:11.205Z" agent="Mozilla/5.0 (Windows NT 10.0; Win64; x64) AppleWebKit/537.36 (KHTML, like Gecko) draw.io/21.2.8 Chrome/112.0.5615.165 Electron/24.2.0 Safari/537.36" etag="6uZE5hoEkF9TNPC9ngkH" version="21.2.8" type="device">
  <diagram name="第 1 页" id="jPFsZ-wn6OdbeIY43XCs">
    <mxGraphModel dx="1050" dy="621" grid="1" gridSize="10" guides="1" tooltips="1" connect="1" arrows="1" fold="1" page="1" pageScale="1" pageWidth="827" pageHeight="1169" math="0" shadow="0">
      <root>
        <mxCell id="0" />
        <mxCell id="1" parent="0" />
        <mxCell id="0yXQTPuULQUDAwn3RkB3-1" value="1" style="ellipse;whiteSpace=wrap;html=1;aspect=fixed;" vertex="1" parent="1">
          <mxGeometry x="50" y="160" width="30" height="30" as="geometry" />
        </mxCell>
        <mxCell id="0yXQTPuULQUDAwn3RkB3-2" value="2" style="ellipse;whiteSpace=wrap;html=1;aspect=fixed;" vertex="1" parent="1">
          <mxGeometry x="170" y="115" width="30" height="30" as="geometry" />
        </mxCell>
        <mxCell id="0yXQTPuULQUDAwn3RkB3-3" value="1" style="endArrow=classic;html=1;rounded=0;entryX=0;entryY=0.5;entryDx=0;entryDy=0;exitX=1;exitY=0.5;exitDx=0;exitDy=0;" edge="1" parent="1" source="0yXQTPuULQUDAwn3RkB3-1" target="0yXQTPuULQUDAwn3RkB3-2">
          <mxGeometry width="50" height="50" relative="1" as="geometry">
            <mxPoint x="150" y="210" as="sourcePoint" />
            <mxPoint x="200" y="160" as="targetPoint" />
          </mxGeometry>
        </mxCell>
        <mxCell id="0yXQTPuULQUDAwn3RkB3-4" value="edge[3].value=3" style="rounded=0;whiteSpace=wrap;html=1;" vertex="1" parent="1">
          <mxGeometry x="340" y="150" width="120" height="40" as="geometry" />
        </mxCell>
        <mxCell id="0yXQTPuULQUDAwn3RkB3-5" value="edge[4].value=3" style="rounded=0;whiteSpace=wrap;html=1;" vertex="1" parent="1">
          <mxGeometry x="340" y="190" width="120" height="40" as="geometry" />
        </mxCell>
        <mxCell id="0yXQTPuULQUDAwn3RkB3-6" value="edge[cnt].value=cnt" style="rounded=0;whiteSpace=wrap;html=1;" vertex="1" parent="1">
          <mxGeometry x="340" y="70" width="120" height="40" as="geometry" />
        </mxCell>
        <mxCell id="0yXQTPuULQUDAwn3RkB3-7" value="edge[1].value=4" style="rounded=0;whiteSpace=wrap;html=1;" vertex="1" parent="1">
          <mxGeometry x="340" y="110" width="120" height="40" as="geometry" />
        </mxCell>
        <mxCell id="0yXQTPuULQUDAwn3RkB3-8" value="" style="rounded=0;whiteSpace=wrap;html=1;" vertex="1" parent="1">
          <mxGeometry x="340" y="230" width="120" height="40" as="geometry" />
        </mxCell>
        <mxCell id="0yXQTPuULQUDAwn3RkB3-9" value="" style="rounded=0;whiteSpace=wrap;html=1;" vertex="1" parent="1">
          <mxGeometry x="340" y="270" width="120" height="40" as="geometry" />
        </mxCell>
        <mxCell id="0yXQTPuULQUDAwn3RkB3-10" value="head[1]=3" style="rounded=0;whiteSpace=wrap;html=1;" vertex="1" parent="1">
          <mxGeometry x="460" y="150" width="120" height="40" as="geometry" />
        </mxCell>
        <mxCell id="0yXQTPuULQUDAwn3RkB3-11" value="head[1]=4" style="rounded=0;whiteSpace=wrap;html=1;" vertex="1" parent="1">
          <mxGeometry x="460" y="190" width="120" height="40" as="geometry" />
        </mxCell>
        <mxCell id="0yXQTPuULQUDAwn3RkB3-12" value="head[1]=0" style="rounded=0;whiteSpace=wrap;html=1;" vertex="1" parent="1">
          <mxGeometry x="460" y="70" width="120" height="40" as="geometry" />
        </mxCell>
        <mxCell id="0yXQTPuULQUDAwn3RkB3-13" value="head[1]=1" style="rounded=0;whiteSpace=wrap;html=1;" vertex="1" parent="1">
          <mxGeometry x="460" y="110" width="120" height="40" as="geometry" />
        </mxCell>
        <mxCell id="0yXQTPuULQUDAwn3RkB3-14" value="" style="rounded=0;whiteSpace=wrap;html=1;" vertex="1" parent="1">
          <mxGeometry x="460" y="230" width="120" height="40" as="geometry" />
        </mxCell>
        <mxCell id="0yXQTPuULQUDAwn3RkB3-15" value="" style="rounded=0;whiteSpace=wrap;html=1;" vertex="1" parent="1">
          <mxGeometry x="460" y="270" width="120" height="40" as="geometry" />
        </mxCell>
        <mxCell id="0yXQTPuULQUDAwn3RkB3-16" value="" style="endArrow=classic;html=1;rounded=0;entryX=0;entryY=0.5;entryDx=0;entryDy=0;fillColor=#f8cecc;strokeColor=#b85450;exitX=1;exitY=0.5;exitDx=0;exitDy=0;" edge="1" parent="1" source="0yXQTPuULQUDAwn3RkB3-2" target="0yXQTPuULQUDAwn3RkB3-7">
          <mxGeometry width="50" height="50" relative="1" as="geometry">
            <mxPoint x="270" y="160" as="sourcePoint" />
            <mxPoint x="320" y="110" as="targetPoint" />
          </mxGeometry>
        </mxCell>
        <mxCell id="0yXQTPuULQUDAwn3RkB3-50" value="4" style="edgeLabel;html=1;align=center;verticalAlign=middle;resizable=0;points=[];" vertex="1" connectable="0" parent="0yXQTPuULQUDAwn3RkB3-16">
          <mxGeometry x="-0.1984" y="-2" relative="1" as="geometry">
            <mxPoint as="offset" />
          </mxGeometry>
        </mxCell>
        <mxCell id="0yXQTPuULQUDAwn3RkB3-23" value="2" style="ellipse;whiteSpace=wrap;html=1;aspect=fixed;" vertex="1" parent="1">
          <mxGeometry x="50" y="485" width="30" height="30" as="geometry" />
        </mxCell>
        <mxCell id="0yXQTPuULQUDAwn3RkB3-24" value="2" style="ellipse;whiteSpace=wrap;html=1;aspect=fixed;" vertex="1" parent="1">
          <mxGeometry x="170" y="395" width="30" height="30" as="geometry" />
        </mxCell>
        <mxCell id="0yXQTPuULQUDAwn3RkB3-25" value="2" style="endArrow=classic;html=1;rounded=0;entryX=0;entryY=0.5;entryDx=0;entryDy=0;exitX=1;exitY=0.5;exitDx=0;exitDy=0;" edge="1" parent="1" source="0yXQTPuULQUDAwn3RkB3-23" target="0yXQTPuULQUDAwn3RkB3-24">
          <mxGeometry width="50" height="50" relative="1" as="geometry">
            <mxPoint x="150" y="485" as="sourcePoint" />
            <mxPoint x="200" y="435" as="targetPoint" />
          </mxGeometry>
        </mxCell>
        <mxCell id="0yXQTPuULQUDAwn3RkB3-26" value="" style="rounded=0;whiteSpace=wrap;html=1;" vertex="1" parent="1">
          <mxGeometry x="340" y="425" width="120" height="40" as="geometry" />
        </mxCell>
        <mxCell id="0yXQTPuULQUDAwn3RkB3-27" value="" style="rounded=0;whiteSpace=wrap;html=1;" vertex="1" parent="1">
          <mxGeometry x="340" y="465" width="120" height="40" as="geometry" />
        </mxCell>
        <mxCell id="0yXQTPuULQUDAwn3RkB3-28" value="edge[cnt]=cnt" style="rounded=0;whiteSpace=wrap;html=1;" vertex="1" parent="1">
          <mxGeometry x="340" y="345" width="120" height="40" as="geometry" />
        </mxCell>
        <mxCell id="0yXQTPuULQUDAwn3RkB3-29" value="edge[2].value=4" style="rounded=0;whiteSpace=wrap;html=1;" vertex="1" parent="1">
          <mxGeometry x="340" y="385" width="120" height="40" as="geometry" />
        </mxCell>
        <mxCell id="0yXQTPuULQUDAwn3RkB3-30" value="" style="rounded=0;whiteSpace=wrap;html=1;" vertex="1" parent="1">
          <mxGeometry x="340" y="505" width="120" height="40" as="geometry" />
        </mxCell>
        <mxCell id="0yXQTPuULQUDAwn3RkB3-31" value="" style="rounded=0;whiteSpace=wrap;html=1;" vertex="1" parent="1">
          <mxGeometry x="340" y="545" width="120" height="40" as="geometry" />
        </mxCell>
        <mxCell id="0yXQTPuULQUDAwn3RkB3-32" value="" style="rounded=0;whiteSpace=wrap;html=1;" vertex="1" parent="1">
          <mxGeometry x="460" y="425" width="120" height="40" as="geometry" />
        </mxCell>
        <mxCell id="0yXQTPuULQUDAwn3RkB3-33" value="" style="rounded=0;whiteSpace=wrap;html=1;" vertex="1" parent="1">
          <mxGeometry x="460" y="465" width="120" height="40" as="geometry" />
        </mxCell>
        <mxCell id="0yXQTPuULQUDAwn3RkB3-34" value="head[2]=0" style="rounded=0;whiteSpace=wrap;html=1;" vertex="1" parent="1">
          <mxGeometry x="460" y="345" width="120" height="40" as="geometry" />
        </mxCell>
        <mxCell id="0yXQTPuULQUDAwn3RkB3-35" value="head[2]=2" style="rounded=0;whiteSpace=wrap;html=1;" vertex="1" parent="1">
          <mxGeometry x="460" y="385" width="120" height="40" as="geometry" />
        </mxCell>
        <mxCell id="0yXQTPuULQUDAwn3RkB3-36" value="" style="rounded=0;whiteSpace=wrap;html=1;" vertex="1" parent="1">
          <mxGeometry x="460" y="505" width="120" height="40" as="geometry" />
        </mxCell>
        <mxCell id="0yXQTPuULQUDAwn3RkB3-37" value="" style="rounded=0;whiteSpace=wrap;html=1;" vertex="1" parent="1">
          <mxGeometry x="460" y="545" width="120" height="40" as="geometry" />
        </mxCell>
        <mxCell id="0yXQTPuULQUDAwn3RkB3-38" value="4" style="endArrow=classic;html=1;rounded=0;entryX=0;entryY=0.5;entryDx=0;entryDy=0;fillColor=#f8cecc;strokeColor=#b85450;exitX=1;exitY=0.5;exitDx=0;exitDy=0;" edge="1" parent="1" source="0yXQTPuULQUDAwn3RkB3-24" target="0yXQTPuULQUDAwn3RkB3-29">
          <mxGeometry width="50" height="50" relative="1" as="geometry">
            <mxPoint x="270" y="435" as="sourcePoint" />
            <mxPoint x="320" y="385" as="targetPoint" />
          </mxGeometry>
        </mxCell>
        <mxCell id="0yXQTPuULQUDAwn3RkB3-42" value="3" style="ellipse;whiteSpace=wrap;html=1;aspect=fixed;" vertex="1" parent="1">
          <mxGeometry x="170" y="155" width="30" height="30" as="geometry" />
        </mxCell>
        <mxCell id="0yXQTPuULQUDAwn3RkB3-43" value="2" style="ellipse;whiteSpace=wrap;html=1;aspect=fixed;" vertex="1" parent="1">
          <mxGeometry x="170" y="195" width="30" height="30" as="geometry" />
        </mxCell>
        <mxCell id="0yXQTPuULQUDAwn3RkB3-44" value="3" style="endArrow=classic;html=1;rounded=0;entryX=0;entryY=0.5;entryDx=0;entryDy=0;exitX=1;exitY=0.5;exitDx=0;exitDy=0;" edge="1" parent="1" source="0yXQTPuULQUDAwn3RkB3-1" target="0yXQTPuULQUDAwn3RkB3-42">
          <mxGeometry width="50" height="50" relative="1" as="geometry">
            <mxPoint x="90" y="235" as="sourcePoint" />
            <mxPoint x="180" y="145" as="targetPoint" />
          </mxGeometry>
        </mxCell>
        <mxCell id="0yXQTPuULQUDAwn3RkB3-45" value="3" style="endArrow=classic;html=1;rounded=0;entryX=0;entryY=0.5;entryDx=0;entryDy=0;fillColor=#f8cecc;strokeColor=#b85450;exitX=1;exitY=0.5;exitDx=0;exitDy=0;" edge="1" parent="1" source="0yXQTPuULQUDAwn3RkB3-42" target="0yXQTPuULQUDAwn3RkB3-4">
          <mxGeometry width="50" height="50" relative="1" as="geometry">
            <mxPoint x="210" y="202.5" as="sourcePoint" />
            <mxPoint x="350" y="197.5" as="targetPoint" />
          </mxGeometry>
        </mxCell>
        <mxCell id="0yXQTPuULQUDAwn3RkB3-46" value="4" style="endArrow=classic;html=1;rounded=0;entryX=0;entryY=0.5;entryDx=0;entryDy=0;exitX=1;exitY=0.5;exitDx=0;exitDy=0;" edge="1" parent="1" source="0yXQTPuULQUDAwn3RkB3-1" target="0yXQTPuULQUDAwn3RkB3-43">
          <mxGeometry width="50" height="50" relative="1" as="geometry">
            <mxPoint x="90" y="235" as="sourcePoint" />
            <mxPoint x="180" y="205" as="targetPoint" />
          </mxGeometry>
        </mxCell>
        <mxCell id="0yXQTPuULQUDAwn3RkB3-49" value="5" style="endArrow=classic;html=1;rounded=0;entryX=0;entryY=0.5;entryDx=0;entryDy=0;fillColor=#f8cecc;strokeColor=#b85450;exitX=1;exitY=0.5;exitDx=0;exitDy=0;" edge="1" parent="1" source="0yXQTPuULQUDAwn3RkB3-43" target="0yXQTPuULQUDAwn3RkB3-5">
          <mxGeometry width="50" height="50" relative="1" as="geometry">
            <mxPoint x="210" y="205" as="sourcePoint" />
            <mxPoint x="350" y="180" as="targetPoint" />
          </mxGeometry>
        </mxCell>
        <mxCell id="0yXQTPuULQUDAwn3RkB3-51" value="value" style="rounded=1;whiteSpace=wrap;html=1;" vertex="1" parent="1">
          <mxGeometry x="210" y="60" width="100" height="30" as="geometry" />
        </mxCell>
        <mxCell id="0yXQTPuULQUDAwn3RkB3-52" value="index" style="rounded=1;whiteSpace=wrap;html=1;" vertex="1" parent="1">
          <mxGeometry x="80" y="60" width="100" height="30" as="geometry" />
        </mxCell>
      </root>
    </mxGraphModel>
  </diagram>
</mxfile>
